{"title":"Tai-Pan.1986.SWESUB.DVDRip.XviD.-Zen_Bud","uid":5650261,"size":1472397296,"categoryP":"video","categoryS":"movies","magnet":"?xt=urn:btih:9a0443388499bade52dce987c86b7f740ffa5284&amp;dn=Tai-Pan.1986.SWESUB.DVDRip.XviD.-Zen_Bud&amp;tr=udp%3A%2F%2Ftracker.openbittorrent.com%3A80&amp;tr=udp%3A%2F%2Fopen.demonii.com%3A1337&amp;tr=udp%3A%2F%2Ftracker.coppersurfer.tk%3A6969&amp;tr=udp%3A%2F%2Fexodus.desync.com%3A6969","seeders":3,"leechers":0,"uploader":"Zen_Bud","files":-1,"time":1277630380,"description":"General\nComplete name                    : Tai-Pan.avi\nFormat                           : AVI\nFile size                        : 1.37 GiB\nDuration                         : 2h 1mn\nOverall bit rate                 : 1 612 Kbps\n\nVideo\n\nFormat                           : MPEG-4 Visual\nCodec ID/Hint                    : XviD\nDuration                         : 2h 1mn\nBit rate                         : 1 471 Kbps\nWidth                            : 696 pixels\nHeight                           : 556 pixels\nDisplay aspect ratio             : 4:3\nStream size                      : 1.25 GiB (91%)\nWriting library                  : XviD 1.1.2 (UTC 2006-11-01)\n\nAudio\n\nFormat                           : MPEG Audio\nMode extension                   : MS Stereo\nCodec ID                         : 55\nCodec ID/Hint                    : MP3\nDuration                         : 2h 1mn\nBit rate                         : 128 Kbps\nChannel(s)                       : 2 channels\nSampling rate                    : 48.0 KHz\nStream size                      : 111 MiB (8%)\nWriting library                  : LAME3.98\n\n","torrent":{"xt":"urn:btih:9a0443388499bade52dce987c86b7f740ffa5284","amp;dn":"Tai-Pan.1986.SWESUB.DVDRip.XviD.-Zen_Bud","amp;tr":["udp%3A%2F%2Ftracker.openbittorrent.com%3A80","udp%3A%2F%2Fopen.demonii.com%3A1337","udp%3A%2F%2Ftracker.coppersurfer.tk%3A6969","udp%3A%2F%2Fexodus.desync.com%3A6969"],"infoHash":"9a0443388499bade52dce987c86b7f740ffa5284","infoHashBuffer":{"type":"Buffer","data":[154,4,67,56,132,153,186,222,82,220,233,135,200,107,127,116,15,250,82,132]},"announce":[],"urlList":[]}}